<svg xmlns="http://www.w3.org/2000/svg" viewBox="0 0 1024 1024" width="1024" height="1024">
  <defs>
    <linearGradient id="logoGrad" x1="0" y1="1" x2="1" y2="0" gradientUnits="objectBoundingBox">
      <stop offset="0" stop-color="#081c46"/>
      <stop offset="1" stop-color="#598eff"/>
    </linearGradient>
  </defs>
  <path fill-rule="evenodd" fill="#0d1933" d="m424.73 377.29q34.77 27.98 66.22 60.57-29.51 27.89-58.95 55.72-19.6-14.73-36.35-33.11-30.1-26.88-62.99-50.07-30.71-18.98-66.22-25.84-43.71-7.85-80.76 15.34-51.95 30.26-62.19 90.45-1.99 20.62 0.81 40.38 12.55 90.49 101.76 110.64 24.35 1.43 48.45 0-16.55 7.27-33.92 12.12-17.33 5.45-35.53 7.27-61.81 8.95-117.91-17.77-5.96-3.53-10.5-8.89-49.02-80.12-30.69-172.82 28.58-105.29 130.03-144.56 100.66-28.57 192.21 22.61 29.17 17.8 56.53 37.96z"/>
  <path fill-rule="evenodd" fill="url(#logoGrad)" d="m941.59 375.67q-109.48-44.82-211.59 14.54-30.16 16.3-58.15 36.34-36.81 31.57-72.68 63.8-80.43 75.99-163.14 149.41-55.07 47.34-124.37 71.07-129.48 38-222.09-58.96-1.61-1.61 0-3.23 26.12 14.09 55.73 18.58 30.69 1.61 61.37 0 16.68-1.97 32.31-7.27 34.68-9.26 66.22-26.65 29.53-17.59 56.53-38.77 90.93-76.37 176.06-159.9 27.15-24.34 54.92-47.65 59.98-52.62 137.29-75.11 100.61-21.99 184.13 37.15 14.95 12.12 27.46 26.65z"/>
  <path fill-rule="evenodd" fill="#0d1933" d="m951.28 386.98q47.31 64.8 40.38 145.37-14.87 128.27-134.87 176.05-104.96 32.82-199.47-23.42-64.25-40.79-118.72-94.49-1.62-1.61 0-3.23 28.28-25.45 54.11-53.3 2.23-1.94 4.84-0.81 49.21 50.05 108.22 87.23 43.27 26.56 93.68 22.61 95.77-19.85 107.42-117.1 6.2-103.54-91.26-138.1-28.9-6.32-58.15-2.43-1.79 0.32-3.23-0.8 99.09-44.51 197.05 2.42z"/>
</svg>
